<?xml version="1.0" encoding="utf-8"?>
<!-- Generator: Adobe Illustrator 23.0.2, SVG Export Plug-In . SVG Version: 6.00 Build 0)  -->
<svg version="1.1" xmlns="http://www.w3.org/2000/svg" xmlns:xlink="http://www.w3.org/1999/xlink" x="0px" y="0px"
	 viewBox="0 0 2848 566.9" style="enable-background:new 0 0 2848 566.9;" xml:space="preserve">
<style type="text/css">
	.st0{fill:#4F6653;}
</style>
<g id="Layer_1">
</g>
<g id="writing">
	<g>
		<path class="st0" d="M632.7,269.4c-1.7-0.1-4,0.3-5.3-0.2c-6.6-1.6-7-10.2-14-11.7c-5.8-1.2-15.1,2-15.1,7.9
			c0,8.1,11.6,14.1,17.2,17.2c7.6,4.2,15.5,8,22.5,11.9c7,4,14.9,7.6,21.7,12.8c6.3,4.8,13.8,10.3,15.7,18.7
			c3.3,14.1-6.4,18.8-16,23c-7.4,3.2-15.6,4.4-23.6,5.1c-13.1,1.2-28.8,1.6-40.4-1.3c-4.7-1.1-9.2-3.6-14-2.3
			c-4.3,1.1-7.2,3.5-10.4,4.9c-3.1,1.4-7.8,2.7-12.5,2.8c-14.8,0.2-22.8-13.9-28.1-24c-1.8-3.5-3.1-7.5-7-10.2
			c-2.8,0.9-3.9,4.1-5.1,6.8c-5.6,13.1-12.9,26.6-25.7,33c-5.1,2.5-13.9,3.2-20,0.4c-4.1-1.9-8.5-6.3-10.8-10.6
			c-5.1-9.4-5.2-23.7-4-36.6c0.4-4.5,0.7-8.8,1.3-12.8c2.5-17.4,2.4-35.8-4.3-48.7c-4.6-8.8-17.7-11.6-33-10.2
			c-4.9,0.4-10.2,1.6-16.4,2.6c-2.7,0.4-13.6,1.6-14.2,4.5c-0.6,3,6.2,8.3,7.7,10c2.9,3.4,5.7,6.4,8.1,9.4
			c6.1,7.7,12.1,18.6,13.6,30c2.8,21.2-7.6,33.2-19.3,41.2c-10.6,7.2-23.1,11.8-37.4,15.1c-4.8,1.1-9.9,1.6-14.7,2.8
			c-4.8,1.1-9.6,1.8-14.7,2.8c-14.8,2.9-31.1,2.5-48.5,1.3c-11.2-0.8-21.1-2.3-29.3-5.7c-8-3.3-15.3-8.3-20.2-14.7
			c-4.9-6.4-7.4-18.5-4.5-28.7c2.4-8.4,7.3-15.4,13-21.9c10.8-12.4,25.4-21.2,40.6-29.3c11-5.9,23.6-10.7,36.4-15.9
			c2-0.8,11.1-3,11.3-6.2c0.2-3.1-6.6-5.6-9.6-6.8c-4.4-1.8-8.2-2.8-11.9-4.3c-3.9-1.5-7.6-3.4-11.3-5.1c-3.7-1.7-7.4-3.5-11-5.1
			c-7.6-3.4-14.2-7.9-21.7-10.8c-7.6-3-15.7-5.7-24-8.5c-15.3-5.1-29.9-13.6-41.9-23.2c-2.8-2.2-5.5-5.2-8.3-8.1
			c-2.6-2.7-5.3-5.7-7.2-8.9c-3.8-6.4-6.7-17.3-3.8-27c3.4-11.4,12.9-17.8,23-23.2c10.2-5.5,20.9-10.4,31.5-14.7
			c10.3-4.2,22.6-8.1,33.8-12.3c5-1.9,11.5-3.9,18.1-4.9c3.2-0.5,7-0.6,10.6-0.9c3.7-0.3,7.7-0.2,10-1.5c1.8-1,7.9-0.2,11.5-0.2
			c3.8,0,7.7-0.3,10.8,0c2.2,0.2,4.6,0.9,7,1.3c6.6,1.1,13.7,3,18.9,5.7c3.5,1.8,6.8,4.1,10.4,6c14.2,7.1,25.5,17.6,30.6,34.9
			c1.9,6.6,4.1,14.7-0.9,18.7c-9,2.6-10-5.4-12.1-11.1c-2.4-6.5-5.5-11.5-10.2-15.9c-11.3-10.9-27.4-19.7-48.9-20.8
			c-5.5-0.3-10.4,0-15.7,0.9c-5,0.8-9.8,1.6-14.9,2.6c-9.4,1.7-18,5.6-26.8,8.1c-8.9,2.5-17.2,6-25.5,9.4c-4,1.7-7.8,3.5-11.7,5.7
			c-3.5,2-7.6,3.5-11.5,6c-3.1,2-6.7,4.4-10.2,7.2c-2.9,2.3-7,6.9-7,10.4c0,3.5,3.2,6.9,5.7,10c7.7,9,16.6,14.3,28.1,18.9
			c14.3,5.8,29.4,12.7,43.8,18.7c3.7,1.5,7.6,2.7,11.3,4.5c17.2,8.3,36.3,15.8,53.4,24.9c3.2,1.7,6.7,3.6,10.2,5.5
			c3.7,2,7.1,4.6,11.9,4.7c4.2,0,8.6-1.6,12.8-2.8c4.2-1.2,8.4-2.1,12.8-2.8c16.6-2.6,37.3-7.7,54.4-2.1c7.5,2.4,13.6,7,18.5,12.3
			c4.7,5.2,8.9,11.7,11.1,19.8c3.1,11.5,5.3,26.4,4,41.9c-0.8,9.1-2.7,17.2-2.6,28.3c0.1,4.5,1,10.4,4.5,10.8c2.4,0.3,5-2,7-3.8
			c5.5-5,9.7-11.9,12.5-19.6c1.6-4.4,4.7-10.5,6.4-15.1c2.7-7.1,5.1-16.3,11.7-18.9c4.3-1.7,9.4,0.3,11.9,2.8
			c5.4,5.2,8.3,15,11,23.4c2.5,7.6,6.2,17.8,11.3,23.2c3.1,3.2,11.2,5.1,17.2,2.6c5.3-2.2,7-9.4,13-11.3c10-3.1,13.2,6.2,19.6,8.3
			c7.4,2.4,17.4,1.5,26.8,0.4c2.6-0.3,5.4-0.6,7.6-1.1c2-0.4,5.5-1.5,5.7-3c0.4-2.5-6.7-6.1-8.7-7.2c-10.7-5.9-20.7-9.7-31.5-16.2
			c-6.9-4.1-13.4-7.2-18.5-13.2c-4.4-5.2-9.2-12.4-10.8-20.8c-2.2-11.1,1.7-20.4,6.4-26.1c5.4-6.7,12.9-9.4,22.1-11.3
			c10.8-2.2,19.4,3,24.9,7.7c6,5.2,11.5,12.8,9.6,23.4C637.6,265.7,635.5,267.9,632.7,269.4L632.7,269.4z M343.2,263.4
			c-4.6,1.8-9.4,3.1-13.6,4.7c-14.5,5.3-26.8,10.1-38.1,16.8c-7.7,4.6-15.9,8.6-22.5,14c-6.5,5.4-10.9,9.5-15.1,17.2
			c-1.6,2.9-3.7,6.8-3.6,10.2c0.1,5.2,3.8,8.5,8.1,10.4c7,3.1,16.6,5.5,25.5,6.2c3.3,0.2,6.6-0.2,9.8,0c10,0.7,19.8,0.3,28.1-0.8
			c5.3-0.7,10-2,14.9-3c3.5-0.7,6.9-1,10.2-1.7c3.2-0.7,6.3-1.6,9.4-2.6c6.2-2,12.5-3.3,18.3-5.5c3.8-1.5,7.8-3.8,11.9-6
			c6.7-3.6,13.4-7.4,14.5-15.3c0.5-4-0.6-6.5-1.7-9.4c-2.3-6.1-5.1-10.8-8.9-15.5c-2.6-3.1-5.1-6.8-7.9-9.6c-2.6-2.6-5.4-4.4-8.7-7
			c-4.4-3.5-9.8-8.1-16.2-7.7C352.4,259.3,347.9,261.6,343.2,263.4L343.2,263.4z"/>
		<path class="st0" d="M2189.2,290c-3.5-7.1-7.8-13.3-10.2-22.1c-2.3-8.4-4.5-18-2.8-28.7c2.1-13.5,7.6-24.6,15.5-33
			c3.3-3.4,6.6-8.9,13.6-7.7c2.7,0.5,5.6,3.8,7.4,6c2.1,2.6,3.2,5.8,4.5,8.9c0.9,2.4,2.9,6.2,4.2,9.1c1.7,3.8,3.6,10.8-1.1,12.3
			c-7.8,2.6-9.4-7.4-13-10c-3.4,0.9-5.6,3.9-7.2,7c-1.5,3-3.3,6.6-4,10c-1.6,7.8,1.2,17.1,3.8,22.3c1.3,2.6,2.8,5.6,4.9,8.5
			c1.3,1.9,4.2,6.7,6.4,7c1.4,0.2,4.1-1,6.2-1.7c5.6-1.8,12.9-3.2,18.9-4c4.2-0.6,9.2-1.3,14.2-1.3c2.4,0,4.9,0.4,7.5,0.2
			c2.5-0.2,4.9-0.6,7.2-0.4c9.3,0.9,15,7,19.4,13.6c1.5,2.2,3.5,4.2,4.5,6.4c1,2.1,1.2,4.8,1.5,7.7c0.2,2.7,0.8,5.4,1.1,8.1
			c0.5,5.4-1.3,11.4,1.5,15.9c3.4,0.5,5.7-0.8,8.5,0.2c3.5,1.3,6.2,5.6,5.5,10.4c-0.6,4.6-6.2,10.5-10,12.1
			c-7.5,3.3-18.9-1.5-21.5-6.4c-1-1.9-1.7-4.6-2.5-7.4c-0.7-2.5-1.9-5.1-2.1-7.7c-0.6-6.1-0.3-12.6-0.8-18.7
			c-0.4-4.7-2-11.1-4.7-13.2c-1.7-1.3-4.8-2.1-7.2-2.3c-12.9-1.3-26.1,1.2-34.4,4.7c0.5,2.5,2.6,4.1,4,6c1.4,1.9,2.8,3.8,4.2,5.7
			c4.8,6,10.2,10.6,11.3,20c0.8,6.7-2,12.2-6.6,14c-2.6,1-6.9,1.3-11.1,1.9c-5.9,0.8-12.1,0.3-17.4-0.2c-3.1-0.3-5.5-0.4-7.7-1.1
			c-3.8-1.2-7.4-3.1-11.7-4.5c-1.8-0.6-3.9-1.2-6-2.1c-2-0.8-4.2-2.3-5.7-2.3c-2.1-0.1-5.4,2-7.7,3.2c-2.7,1.4-5.2,2.7-7.2,3.6
			c-5,2.2-10.1,5-14.9,6.6c-10.5,3.4-22.5,7.3-35.1,7.9c-7.5,0.4-14.9,0.5-20.8-0.8c-5.6-1.3-10.9-3.4-15.5-6
			c-4.6-2.5-7.7-6.2-11.9-9.6c-2-1.6-3.7-3.4-5.5-5.3c-3.4-3.7-6-6.4-8.1-11.5c-1.6-3.8-3.3-10.4-3.8-15.3c-0.5-4.5,0.4-15.2-3-15.9
			c-3.5-0.8-4.9,3.5-5.3,5.1c-0.7,2.6-0.9,5.5-1.7,8.7c-1.6,6.8-3.4,9.9-6.4,14.5c-2.8,4.3-5.4,8.3-9.1,11.7
			c-3.6,3.3-7.5,6.3-11.3,9.6c-10.5,9-26.4,15.5-41.5,21c-2.7,1-5.3,1.7-8.3,2.1c-3,0.4-6,1.2-8.9,1.5c-7.2,0.6-15.1,0.6-21.7-0.6
			c-13.1-2.4-25.6-4.7-33.2-12.8c-3.6-3.8-7.3-8.3-9.2-13.8c-2.4-7.1-1.5-16,1.7-21.3c1.8-2.9,4.6-5.7,7.2-8.3
			c5.3-5.3,12.1-7.8,19.4-11.5c3.6-1.8,9.8-3.6,10.4-7.9c0.2-1.4-0.2-3.6-0.4-5.5c-0.2-1.9-0.3-3.8-0.4-5.5
			c-0.3-3.7-1.4-7.3-1.7-10.2c-0.5-5.6,0-11.5,0-17.4c0-17.1,0.8-33.8,0.8-50.8c0-8.1,0.8-16.3,0.9-25.3c0-2.8,0.7-5.5,0.4-8.1
			c-0.8-8.4-0.2-17-0.8-24.7c-0.2-2.7-0.1-5.5-0.6-7.9c-0.4-1.9-1.9-3.8-3.6-6c-1.7-2.1-2.3-5-4-6.4c-1.6-1.3-3.8-1.8-5.5-3
			c-1.6-1.1-3-2.6-4.5-3.8c-5.8-4.8-12.2-11-18.9-14.7c-7-3.8-21.4-3.9-18.3-17.2c0.5-2.1,1.2-2.8,3.4-4.5c1.8-0.3,8.6-1,12.1-0.4
			c4.4,0.7,9.8,3.8,13.2,6.2c1.9,1.4,3.9,2.6,5.7,3.8c1.9,1.3,3.4,3.1,5.1,4.5c3.5,2.8,7.7,5.6,10.8,8.5c3.2,2.9,6.5,7.3,10,9.1
			c2.1,1.1,5,1.1,7,2.3c4.7,3,6.5,9.2,9.4,13.8c1.7,2.7,4.6,5,7,7.9c2.3,2.7,4.5,5.5,6.8,7.9c4.9,4.9,9.2,10.7,13.6,15.7
			c4.6,5.3,9.1,10.6,13.6,15.9c4.5,5.4,8,11.7,12.1,17.2c2,2.7,3.9,5.8,5.7,9.1c1.8,3.1,3.9,6.2,5.3,9.4c1.5,3.4,3.5,6,5.5,9.1
			c5.9,9,10.2,19,14.7,29.6c1.3,3.1,2.8,6.2,4,10.6c0.9,3.2,1.9,9.8,3.6,11.1c2.7,1.9,9.5,0.4,11.7-1.5c1.4-1.2,2.7-4.7,3.6-6.8
			c1.2-2.5,2.5-4.9,3.4-7c6.3-14.3,17-23.5,29.5-32.5c7.7-5.5,19.5-10,30.2-11.3c13.1-1.6,24.4,2.3,31.2,9.1
			c3.1,3.1,5.2,7.3,7.9,11.5c4,6.2,6.3,17.1,4.7,27.4c-1,6.6-6.4,11.8-11.9,14.5c-4.9,2.3-10.7,4.3-16.2,5.7
			c-10.1,2.6-22.2,3.2-32.7,4.9c-3.7,0.6-7.4,1.4-10.6,1.7c-5.6,0.5-11.2,0.9-16.4,1.9c-4.8,1-6.6,3.1-6.6,8.7
			c0,9.7,5.2,19.7,10.8,25.3c2.1,2.1,3.9,4.9,5.7,6.2c2.7,1.8,7.1,3.3,11.1,4.5c5.8,1.7,11.6,2.5,18.3,1.9c15.6-1.4,29-6.4,43.6-9.6
			c1.7-0.4,3.9-1.1,6.2-1.7c2.8-0.7,5.1-0.7,6.4-1.5c3.2-2,4.6-9.2,6.2-13.4c1.6-4.2,5-8.4,8.3-11.1
			C2184.9,293.7,2187.8,293.3,2189.2,290L2189.2,290z M1944.7,164.8c-0.2,2.6-0.7,5.4-0.8,7.7c-1,13.5,0.7,25-0.2,38.9
			c-0.2,2.8,0.1,5.1,0,7.9c-0.1,4.2-0.9,8.8-1.3,13.4c-0.4,4.6,0.3,9.3,0,13.4c-0.2,2-0.9,4.1-0.9,6c0.1,2.7,1.5,5.5,1.7,8.5
			c0.2,1.9-0.2,4,0,6c0.2,2,0.7,4.1,0.9,6.2c0.3,4.9-0.4,10.3,2.8,13.2c6.8-0.6,13.6-2.5,19.8-3.8c2.4-0.5,4.7-0.4,7.4-0.6
			c5-0.5,10.5-3.2,15.5-3.8c5.4-0.7,10.2-1.3,15.1-2.1c4.2-0.7,12.3-0.9,13.4-4c0.6-1.6-0.4-4.9-1.1-7c-1.6-5.5-3.6-8.8-5.5-13.4
			c-2.1-4.9-4.5-9.7-6.6-14.2c-1.1-2.6-1.6-5.1-2.6-7.9c-1.8-5.4-5.8-10-8.3-15.1c-2.7-5.4-6-10-8.9-14.5
			c-7.6-4.1-10.1-12.2-14.7-19.8c-1.3-2.2-3.5-4.3-5.1-6.6c-1.7-2.4-3.4-5-5.1-6.6c-1.6-1.4-3.8-2.5-5.7-4c-2.7-2.2-5.2-6.1-8.3-6
			C1944.7,157.6,1945,161.1,1944.7,164.8L1944.7,164.8z M2089.5,263.2c3.9-0.3,6.3-0.7,9.6-1.3c8.7-1.5,18.5-2.2,25.9-4
			c7.3-1.8,14.9-3.6,18.1-8.9c0-3.7-0.8-7.4-2.3-9.8c-1.9-2.9-6.4-6.8-10-8.1c-5.2-1.9-9.5-0.5-14.2,0.6c-2.7,0.6-5.4,1-7.7,1.7
			c-9.3,2.9-16.3,8.6-22.1,14.9c-4.8,5.3-10.2,9.2-12.3,16.2C2079.3,265.4,2084.1,263.6,2089.5,263.2L2089.5,263.2z M2014.9,293.6
			c-2.9,0.3-6.2,0.9-10,1.3c-4.6,0.5-10,1.7-15.1,3c-10.3,2.6-19.4,3.8-29.8,6.4c-4.2,1.1-11.7,3.1-12.5,5.7
			c-0.8,2.6,1.4,6.3,1.3,9.8c-0.1,3.9-2.4,7.3-5.5,7.9c-8.1,1.5-11.2-3.7-13.2-8.5c-2.1-5.1-2.6-5.2-7.4-3
			c-4.2,1.9-9.6,4.1-12.5,6.6c-1.8,1.5-4.1,4.9-4,7.7c0.1,4.6,4.4,6.5,7.4,8.3c6.1,3.6,13.1,5.3,21.7,6c19.8,1.5,30.7-5.1,44.7-11.1
			c7.9-3.4,14.9-7,20.6-11.9c2-1.8,4.3-3.3,6-4.9c1.8-1.8,3.3-4.4,5.3-6.6c4-4.4,6.6-9.3,7.4-15.9
			C2018.1,293.4,2016.4,293.5,2014.9,293.6L2014.9,293.6z M2208.3,314c-2-2.4-4.3-7-8.3-5.7c-3.2,1-9.5,4.9-9.1,7.9
			c0.2,1.8,3.3,2.6,5.5,3.2c5.4,1.3,11.9,3.3,17.7,1.9C2212.6,318.4,2210.5,316.2,2208.3,314L2208.3,314z"/>
		<path class="st0" d="M916.5,85.3c5.9-1.3,10.9,4.4,13,8.7c1.6,3.4,2.8,8.9,3.4,13.8c1.3,10.5,2.3,20.1,4,30.2
			c0.9,5,1,10.2,1.7,15.3c0.3,2.5,1,5,1.3,7.4c0.3,2.6,0,5.2,0,8.1c0,5.4,0.7,10.7,0.9,16.2c0.3,10.7,0.4,21.7,0.4,33
			c0,11.1-0.9,22.3-0.9,32.5c0,5.6,0,10.9,0,16.4c0,5.2,1.2,10.3,1.5,15.5c0.3,5.4,0.7,10.5,1.5,15.7c1.7,10.2,2.6,19.2,5.1,29.1
			c1,3.9,2.8,11.3,5.1,11.9c1.8,0.5,5-2.3,6.6-3.6c5.7-5,9-11.3,13.6-17.9c3-4.3,5.7-8.4,8.1-13c5.1-9.5,8.5-18.4,13.2-28.9
			c2.1-4.8,4.9-9.4,7-14c4.3-9.4,9.2-19.8,18.1-23.8c4.7-2.2,11.1-1.1,15.1,1.7c3.8,2.6,6.7,7.1,9.8,11.1c1.6,2.1,3.3,3.8,4.7,5.7
			c4.3,6,7,13.4,10.8,20.2c2.6,4.6,4.4,9.6,6.4,14.2c4,9.3,8.4,19,13.8,27.6c2.5,4,5.6,8,8.9,11.9c3.4,4,7.1,9.6,11.9,9.1
			c4.9-0.5,6.8-11.6,7.6-16.6c0.6-3.8,0.9-7.5,1.1-11.1c0.2-3.9,0.8-7.7,0.9-11.3c0.5-16.9,1.8-30.8,3.8-44.6
			c1.9-12.6,4.9-27.9,9.6-38.9c1.1-2.6,2.7-5.4,4-8.1c1.4-2.8,2.7-5.6,4.2-7.9c2.8-4,9.9-10.1,15.5-10.8c6-0.8,12.1,0.8,17.2,2.8
			c5.7,2.1,12.7,6.4,11.3,14c-1.5,8-17.7,3.8-24.7,6.8c-3.4,1.5-6.4,5.7-8.3,9.4c-3.3,6.5-5.5,14.8-7.7,23.2
			c-1.1,4.2-1.9,8.4-2.3,13c-0.6,6.8-1.6,12.5-2.3,19.8c-0.2,2-0.3,4.1-0.4,6.2c-0.3,4.1-0.8,8.1-1.1,12.1
			c-0.4,5.2,0.2,10.3-0.4,15.3c-1.2,10-1.2,19.3-3,28.5c-1,5.4-2,11.5-4.5,15.3c-2.2,3.5-6,6.4-9.8,7.7c-7,2.4-14.9,2-20.4-0.4
			c-5-2.2-9.8-6.6-13.4-10.2c-11.6-11.6-20.2-27.2-27.2-43.8c-4.9-11.7-10.4-19.5-14.9-32.3c-1-2.8-2.2-5.4-3.8-8.1
			c-1.1-1.9-3.9-5.8-5.9-5.7c-2.3,0.1-3.9,4-5.3,6.2c-7.5,11.6-12.6,25.4-18.1,38.7c-2.2,5.3-4.9,10.4-7.4,15.3
			c-2.6,5-5,10.2-8.3,14.5c-3.3,4.3-6.7,8.2-10.2,12.5c-6.2,7.6-15.4,18.1-29.8,15.7c-3.7-0.6-8.1-4.9-10.2-7.7
			c-3.3-4.3-5.5-10.7-7.4-17c-2-6.5-3.7-12.9-4.9-19.6c-1.2-6.8-2.6-14.1-3.2-21.3c-1.2-15.1-2.6-29.8-2.6-45.7c0-8,0-16,0.6-23.6
			c0.6-7.4-0.2-15.4,0.2-23.4c0.4-8,0.8-16.2,0.4-23.8c-0.2-3.9-1-8.1-1.3-12.3c-0.8-12-1.2-24.8-2.6-36.8c-0.8-7.4-2.2-15.2-3.8-23
			c-0.9-4-1.5-7.3-1.9-11.5C910.4,94.4,910.7,86.6,916.5,85.3L916.5,85.3z"/>
		<path class="st0" d="M2313.8,207.9c-0.2,3.4,5.1,7.5,3,13.4c-0.7,1.9-3.8,3.6-7.4,2.8c-3.8-0.8-7.2-6.5-9.1-9.1
			c-3.2-4.4-6-9.4-10.4-12.1c-1.5-0.9-4.1-1.8-6.2-3c-1.7-0.9-4.2-3-6-3c-3.4,0.1-6.9,4.7-8.5,6.8c-1.8,2.3-5.4,6.4-5.3,9.8
			c0.1,4.2,5.3,9.1,9.6,9.4c6.8,0.4,8.9-5.8,15.3-5.1c5.3,0.6,6.5,7.8,3.8,12.3c-3.6,6.1-14.7,9.3-25.1,8.3
			c-8.6-0.9-15.2-7.7-18.3-14.2c-5.1-11,0.6-22.8,6.2-30.2c4-5.4,9.1-8.5,14.2-12.8c-3-2.9-7.3-4.2-10.9-6.6
			c-6.6-4.4-13.7-10.6-15.3-20.2c-2.4-14,6.1-24.9,18.9-24.2c15.5,0.8,22,15.8,25.7,28.5c3.4-3.2,4.9-7.4,7.4-10.8
			c5-6.7,12.4-11.6,21-15.1c4.3-1.7,9.3-3.6,14-4c15.2-1.4,19,5.1,17.6,20.6c-0.8,8.7-5.4,15.9-10,21.5c-1.4,1.7-3.5,3.8-3.6,5.1
			c-0.1,1.8,3.1,5.1,4.5,7.2c3.5,5.3,7,16.7,1.5,23c-1.8,2-5,3.7-8.1,4C2326.4,210.8,2319.5,208.8,2313.8,207.9L2313.8,207.9z
			 M2331,152c1.3-3.2,2-8.2-2.8-7c-13.2,3.3-23.3,14.5-27.4,27.4C2313.8,169.8,2326.3,163.5,2331,152L2331,152z M2262.3,156.9
			c2,2.6,8.4,8.3,8.7,2.6c0.1-2.1-2.2-5.8-4-8.1c-1.7-2.1-3.9-4-5.7-4.3C2257.5,149.3,2260.3,154.2,2262.3,156.9L2262.3,156.9z
			 M2307.2,189.2c2.8,2.5,8.3,3.8,13,4.7c1.3,0.2,2.9,0.5,4-0.2C2322.4,188.6,2312.9,186.5,2307.2,189.2L2307.2,189.2z"/>
		<path class="st0" d="M691.6,184.1c9.3-1.8,14.2,3.3,20.8,6.2c6.6,2.8,13.7,7.4,16.6,14c0.5,1.1,1.4,3.4,1.7,5.3
			c1.7,12.4-2.6,20.9-9.4,24.7c-3.7,2.1-10.7,2.2-15.9,1.7c-8.4-0.9-15.3-6.6-19.1-14.2c-1.3-2.6-1.9-5.4-3-8.3
			c-0.9-2.5-2.2-5.5-2.5-8.5C679.6,194.5,683.4,185.7,691.6,184.1L691.6,184.1z M706.1,217.9c1.2,1.2,3.4,3,5.7,2.6
			c2.3-0.4,4.7-4.3,4.7-6.6c-0.1-3.7-5.1-8.8-8.1-9.6c-4.2-1.1-6.2,2.2-10.4,0.9C699.8,209.8,702.7,214.7,706.1,217.9L706.1,217.9z"
			/>
		<path class="st0" d="M1386.6,333.6c-4,3.3-6.3,7.9-9.6,11.7c-6.5,7.4-14.7,13.4-25.5,17c-8,2.6-16.8,5.1-28.3,4
			c-8.2-0.8-15-5.1-20.6-9.4c-5.8-4.4-10.1-10.5-14.2-15.7c-9.6-11.9-10.7-29.2-15.5-44.2c-2.7,3.2-4.2,7.1-6,10.6
			c-1.9,3.8-3.6,7.5-5.5,11.1c-3.9,7.1-8.5,12.8-14.9,18.3c-2.9,2.5-5.6,5.4-8.7,7.9c-3,2.3-6.7,4.3-10.2,6.4
			c-7,4.1-15.1,7.4-24.9,8.3c-9.4,0.8-16-2.3-20-7.7c-3-4-5.9-10.7-6.2-15.3c-1.1-20.1,6.8-35.9,12.3-49.8c1.9-4.9,4.6-9.1,7.4-13.2
			c2.7-3.9,5.5-8.1,8.5-12.1c3-4,5.5-8.3,8.9-11.7c3.3-3.2,7.5-6,11.9-8.7c5.9-3.6,18-8.7,26.8-4.5c6.1,2.9,9.4,9.8,13.6,15.5
			c1.2,1.6,2.4,4.6,4.5,5.1c2.8,0.7,5.1-0.7,7.6,0c4.1,1.1,7.6,7.5,9.8,11.7c4.2,8.1,4.9,15.7,6.8,25.1c1.2,5.7,2.7,11.3,4.7,16.6
			c1,2.8,1.6,5.6,2.8,7.9c1.2,2.5,3.4,5.2,5.5,8.1c5.5,7.4,10.8,14.1,24,14c16.5-0.1,28.3-9.3,36.1-18.1c4.1-4.6,7-9.2,9.8-17.2
			c1.2-3.4,1.4-6,2.1-11.5c0.4-3.1,1.6-9.7-1.1-11.1c-1.9-1-6.7,0.3-8.9,0.6c-3.1,0.4-6.3,0.7-8.5,1.3c-8.3,2-22.5,5.5-27.4-1.7
			c-4-5.8-1.5-16.6,3.6-19.6c2.8-1.6,6.5-1.7,11-1.7c7.6,0,14.4-2.6,21.5-4c3.7-0.7,8.4-1.2,9.8-3.8c1.6-3,1.4-9.1,1.9-14
			c0.5-4.9,0.6-9.9,1.3-14.5c0.6-4.5,2.4-8.5,3-13c1.1-7.7,1.8-18.6,8.7-19.8c2.4-0.4,4.6,0.1,5.5,0.4c6.4,2.1,8.6,11.3,7.9,20.2
			c-0.3,3.2-1.2,6.4-1.5,9.6c-0.4,3.5-1.1,6.7-1.5,9.6c-0.6,4.9-0.5,13.7,1.9,14.9c1.3,0.6,4.4-0.1,7-0.6c12.3-2.4,22.8-5,33-8.7
			c4-1.4,7.6-3.1,12.3-4.3c13.6-3.4,25.5-7.6,39.1-11.1c4.3-1.1,9.9-3,14.2-1.9c7.9,1.9,12.9,16.4,5.1,21.7
			c-2.2,1.5-6.5,2.3-9.6,3.2c-3.4,0.9-6.8,1.8-9.8,2.8c-6.2,2-12,4.6-18.3,6.8c-6.6,2.3-12.4,4.1-18.9,6.2c-2.8,0.9-5.9,2-8.7,3.8
			c-2.1,1.3-6.4,4-6.4,6.2c0.1,2.6,5.6,4.6,8.3,5.5c3.9,1.3,7.3,2.4,10.2,3.6c5.3,2.3,9.2,3.8,15.7,4.9c2.1,0.3,4.7,0.4,6.4,1.1
			c2.9,1.2,4.5,4.3,7.2,6.4c3.8,3,8.5,4.8,12.8,6.8c4.1,1.9,7.7,4.6,11.3,8.1c3,2.9,6.4,6.4,8.7,10.6c3.1,5.6,8.4,15.9,4.5,24.4
			c-3.7,8.1-14,12-23.8,14.9c-5,1.5-10.2,2.3-16.2,3.2c-5.8,0.8-12.1,1.5-17.2,0.2c-4.7-1.2-10.7-4.5-13.8-7c-3.9-3-6.8-8.4-6-16.2
			c0.4-3.3,1.8-7.3,2.6-11.3c0.8-4.2,1.4-8.2,2.5-11.3c1-2.8,4.4-6.9,4-9.8c-0.3-2.2-3.9-3.1-6.8-3.8c-3.2-0.8-5.6-1.6-8.1-2.6
			c-5.4-2.1-10.5-2.5-15.3-5.7c-5.3-3.6-8.4-9.7-9.6-17.2c-0.4-2.7-1.2-5.1-3-5.7c-3-1.1-7.6,0.9-10.2,1.9c-3.9,1.5-6.8,2.7-7.6,6.8
			c-0.8,3.4,0.6,9.8,0.2,14.7c-0.1,1.3-0.6,2.6-0.6,3.6c-0.3,6,2.1,14.1,3.4,20c1.5,6.6,3.1,13.5,6.6,16.8
			c4.7,4.4,14.6,3.9,16.6,10.6c2.2,7.4-3.2,13.6-8.3,14.5c-4.5,0.8-10.6-0.6-13.8-1.7c-6.5-2.2-10.3-7.4-13.6-12.8
			c-1.2-1.9-2.5-3.6-3.4-5.5C1388.9,337.4,1388.6,334.9,1386.6,333.6L1386.6,333.6z M1232.5,267c-2.2,1.7-4.7,2.9-6.4,4.5
			c-4.5,4.3-8.5,12.6-12.1,18.5c-1.3,2.1-2.9,4.1-4,6.2c-2.9,5.2-5.2,11.7-7.6,17.9c-1.8,4.6-6.5,16.8-2.1,19.8
			c3.1,2.1,9.5-0.6,13-2.1c8.1-3.6,13.7-7.9,20-12.5c2.7-2,6.3-4.7,8.7-7.7c2-2.4,3.2-5.3,4.7-7.9c1.5-2.6,3.3-5,4.9-7.9
			c1.3-2.4,2.4-5.6,3.8-8.7c1.3-2.8,3.4-6.8,3.4-9.4c0-2.1-1.6-5.1-2.5-7.4c-2.1-5.5-4.7-10.8-11.5-9.8
			C1238.7,261.3,1236.4,264,1232.5,267L1232.5,267z M1474.2,323.2c-0.8,2.8-1.7,12.4,0,14.5c1.3,1.5,4.4,1.2,6.6,1.1
			c6.4-0.5,11.1-0.7,17.7-2.6c2.8-0.8,10.4-3.2,10.6-5.7c0.2-2.1-3.2-4.1-5.5-6c-1.9-1.5-4.3-4.1-6.4-5.3c-3-1.8-5.3-2.4-7.7-3.8
			c-2.3-1.4-5.8-4.2-8.5-3.4C1478.6,312.6,1475.4,319.3,1474.2,323.2L1474.2,323.2z"/>
		<path class="st0" d="M2411.6,284.3c3.8-5.1,7.9-10,12.1-14.9c4.2-4.8,9.6-8.6,14.7-12.8c4.9-4,10.7-7.1,17.9-9.6
			c7-2.4,14.5-4.7,22.8-4c14.2,1.2,23.1,13.1,28.5,24c1.7,3.5,3.8,8.6,4.9,12.5c1.6,6,0.8,12.5,3.2,17.6c1.5,0.4,2.2-1.4,3-2.1
			c2.9-2.7,8.9-4.2,14.2-2.3c3.1,1.1,6.2,3.9,9.1,6.4c2.8,2.3,5.4,5,7.7,7.7c5,5.9,8.8,12.1,13.2,17.4c2.7,3.3,8.6,9.4,13.4,9.4
			c3.8,0,8-0.8,11.7-0.4c3.7,0.4,6.9,2.1,10.4,2.6c9.9,1.4,18.5-0.6,28.1-1.3c-1.5-2.2-4.1-2.9-6.2-4.5c-4.1-3.1-8.2-6.3-12.3-9.8
			c-5.4-4.6-10.4-8.3-14.9-14.5c-1.2-1.7-2.5-3.8-3.6-5.7c-2.6-4.6-4.7-7.9-4.7-15.5c0-11.1,1.6-20.5,6.4-27.2
			c4-5.6,11-12.5,19.6-13.4c4.2-0.5,9.1-0.1,13,1.9c3.6,1.9,8.9,7.4,10.4,12.5c2.2,7.4-1.2,13.7-8.5,13.2c-3.7-0.3-6.4-3.2-9.4-3.2
			c-2.7,0-6.9,3.2-8.7,5.5c-1.2,1.6-2.9,4.9-3,7c-0.1,5.4,6.2,13.6,8.9,16.8c1.9,2.2,4.3,4,6.4,6.4c2,2.3,4.1,4.9,6.2,6.6
			c2.4,1.9,5.2,3.3,7.7,5.3c5.1,4,9.9,6.4,14.7,11.1c4.4,4.3,9.2,8.4,7.7,18.3c-1.8,4-3.5,7.1-7,8.7c-2.1,1-4.9,1.3-7.7,2.1
			c-10,2.9-27.3,1.4-39.1,0.4c-2-0.2-4.4-0.8-5.5-1.3c-2.2-0.9-4.7-3.7-6.8-3.8c-2.8-0.2-6.2,2.6-9.4,3c-6.1,0.7-9.8-0.9-14.2-2.8
			c-9.8-4.2-16.7-9.3-23-17.9c-2-2.7-4.2-5.5-6.6-8.7c-1.7-2.4-5.5-7.2-7.9-7.2c-4-0.1-7.6,8.5-9.3,13.2c-1.1,2.8-1.9,5.7-3,8.3
			c-1.3,3-2.9,5.4-3.8,7.9c-1.4,3.8-1.4,7.7-3.6,10.4c-2,2.5-4.6,3.8-9.6,3.2c-3.5-1.7-7.2-4.4-7.9-8.7c-0.6-3.9,0.6-8.3,1.7-12.3
			c1-3.8,1.8-7.8,2.3-11.5c1.1-7.9,1.9-25.9,1.9-25.9c-0.5-5.9-2.4-13.6-4-19.6c-1.6-5.7-4-13.6-8.3-16.8c-2.1-1.6-7.2-4.2-10.6-4.3
			c-2.1-0.1-4.5,1-7,1.5c-5.9,1.1-9.1,2-13.6,4.5c-2.1,1.2-4.5,2-6.4,3c-2.4,1.3-4.6,3.1-6.8,4.5c-5,3.1-7.3,5.7-11,10.4
			c-1.4,1.7-3.8,4-3.8,6.4c0,2.2,3.8,6.1,5.5,8.7c5.6,8.7,9.7,17.9,14.9,27.2c6.9,12.2,12.3,26.4,16.4,39.8
			c2.1,6.8,3.5,14.2,4.9,21.7c0.7,3.9,0.8,7.9,1.5,11.9c0.8,4.1,0.8,7.8,0.8,11.9c0.4,15.9-0.4,30.3-4.5,42.9
			c-2.9,9.1-6.7,17.2-13,23.2c-2.1,2-3.7,4.5-5.7,6.2c-2.1,1.7-4.9,3.5-7.5,5.1c-5.5,3.5-11.7,6-21.7,4.5c-5.2-0.8-11.2-4-15.5-6.8
			c-4.9-3.1-8.2-6-11.5-10.6c-1.5-2.2-2.7-4.7-4.2-7c-3.1-4.7-5.5-8.3-7.7-14.5c-1-2.7-2.5-5.5-3-8.1c-0.4-2,0.1-3.8,0-6
			c-0.1-2.4-0.7-4.9-0.9-7.4c-0.7-9.4-0.6-22.8,0.4-32.5c0.3-2.9,1-5.7,1.3-8.5c0.6-6,0.9-12.1,1.7-17.9c1-7.1,3.6-13.2,4.5-20
			c-5,0.7-9,4-13.6,5.7c-2.3,0.9-5.1,1.6-7.7,2.3c-2.5,0.7-5.3,1.7-7.9,1.9c-3,0.3-6.5,0.2-10,0.4c-9.8,0.7-16.2-4.5-21-9.1
			c-4.2-4-8.2-8.5-10-14.5c-1.2-3.9-2.1-8.3-2.3-12.3c-0.2-3.2,0.4-6.8,0.4-10.4c0-10.1,2.5-19.5,5.5-26.8c3.2-7.6,6.4-15,10.8-21.7
			c1.3-2.1,3.1-4,4.5-6.2c1.5-2.3,2.5-4.6,4.3-6.6c1.7-1.9,3.7-3.4,5.3-5.5c3-4.1,6.9-7.3,10.6-10.8c3.6-3.4,7.9-6.5,12.1-9.4
			c6.3-4.4,11.5-8.1,21.7-7c5.9,0.6,11.6,4.3,14.9,8.1C2409.6,244.6,2417.2,265.5,2411.6,284.3L2411.6,284.3z M2382.5,303.8
			c0-5.4,3-11.3,5.7-15.5c2.9-4.4,6.5-8.4,7.9-13.6c1.9-7.5-0.3-15.2-2.8-19.8c-1.5-2.8-2.8-5.8-5.7-7c-4.8-1.9-8.7,2.2-12.3,4.3
			c-8.9,5-13.3,11.2-20.4,18.3c-2,2-4.1,4.5-5.9,7c-5.1,7.1-8.5,12.4-11.5,21.9c-1.7,5.3-4.1,10.3-5.5,14.7c-2.8,8.8-3,25.4,4,28.7
			c6.1,2.8,14.5,0.3,20.4-1.3c8.6-2.3,14.7-5.5,22.3-8.7c3.9-1.7,8.1-3.1,10.4-5.1c4-3.5,5.5-9.2,7.2-15.3
			C2389,314.7,2382.5,310.9,2382.5,303.8L2382.5,303.8z M2415.6,331.5c-1.4,1.8-2.9,3.3-4.3,4.9c-1.3,1.5-2.9,3.3-4.5,4.7
			c-1.8,1.5-3.8,2.9-4.7,4.7c-1.1,2.1-1.6,5.3-2.3,8.1c-0.7,2.9-1.3,5.9-1.9,8.7c-1.3,6-3.5,11.2-4,17c-0.3,3.4-0.3,7-0.6,10.6
			c-0.3,3.4-0.8,6.8-1.1,10.2c-0.2,2.1,0.2,4.1,0,6.2c-0.2,2.6-0.7,5.1-0.9,7.7c-0.4,5.2,0.2,10.6,0.6,14.9c0.2,1.7,0,3.4,0.2,4.9
			c0.8,5.9,3.4,12.9,5.7,17.9c2.3,5,6.2,10.9,9.8,13.8c4.3,3.4,11.2,6.1,17,4.3c7.1-2.2,14.8-9.8,18.1-15.3c2-3.5,3.5-9,5.1-14.7
			c2-6.9,3.7-14.5,3-22.7c-0.3-3.3-0.1-7.4-0.4-11.3c-0.2-1.9-0.6-4-0.9-6c-1.9-15.1-5.4-26.3-9.8-38.9c-2.2-6.5-5.6-12.5-8.5-19.1
			c-2.5-5.8-6.6-13.4-11.5-16.6C2418.3,326.7,2417.1,329.5,2415.6,331.5L2415.6,331.5z"/>
		<path class="st0" d="M794.7,234.1c8-0.7,17.7,3.9,22.1,8.7c1.8,2,4.2,5.3,5.1,7.7c2.3,5.8,2.9,18.7,0.2,25.5
			c-2.3,5.9-7,10.4-12.1,15.3c-9.7,9.4-23.4,12.1-38.7,15.9c-2.7,0.7-7.1,1.6-11.3,2.3c-4.7,0.8-8.2,1.6-9.4,4.9
			c-1.4,3.9,1.2,9.2,2.3,11.3c4.2,7.7,12.9,13,24.7,13.2c9.2,0.2,21.4-3.9,28.9-6.8c3.9-1.5,8.1-3.5,12.1-5.7
			c4.2-2.4,7.9-5.2,13.2-4.3c6,1.1,7.4,7.5,4.9,13.4c-3.1,7.3-13.5,13.3-20.6,17.4c-7.7,4.4-18.1,7.6-28.1,9.8
			c-25.4,5.4-43.6-6-52.5-20.8c-6.2-10.3-9.7-24.6-8.5-41.5c1.4-20.1,10.3-34.5,21.7-45.1c5.9-5.5,11.9-10.2,19.6-13.8
			C775.8,238,784.6,235,794.7,234.1L794.7,234.1z M772,267.5c-2.4,1.7-4.1,3.2-6.8,6.2c-1.5,1.7-6.1,5.1-5.3,7.9
			c0.8,2.7,6.7,1,9.8,0.2c10.6-2.9,21-5.5,28.1-11.1c1.7-1.4,5.4-4.2,4.9-7.9c-0.6-4.2-7.5-4.2-12.8-3.6
			C782.3,260.1,777,263.9,772,267.5L772,267.5z"/>
		<path class="st0" d="M1683.4,312.1c3-0.3,5-3.1,6.6-5.1c8.9-10.9,18.9-20.7,32.5-27.4c5.9-2.9,14.2-7.3,21.9-4.7
			c5,1.7,8.6,7,11.3,11.3c2.9,4.7,4.8,10.2,6.8,15.5c1.9,4.9,4.7,9.8,6.6,15.9c1.9,6.5,3.8,15.9,10.2,17c4.9,0.8,12.1-2.4,15.5-4
			c2.3-1.1,4.5-2.1,6.6-3.2c3.4-1.8,7.2-4.9,12.5-3.4c4.6,1.3,6,6.6,4.7,12.1c-1.4,6-11.5,10.7-16.4,14c-6.2,4.2-12.8,8.8-20.6,9.8
			c-10.7,1.4-17.5-2.7-21.9-7.7c-5.6-6.3-9.3-15.9-12.8-25.7c-2.3-6.7-3.8-14.7-7.4-21.3c-1.2-2.1-2.3-4.7-4.5-5.1
			c-2.6-0.5-7.8,2.3-10.4,3.8c-3.2,1.8-6.5,4.6-9.6,7c-4.8,3.8-8.5,7.3-11.9,12.1c-5.4,7.6-9.9,14.3-17.7,20.4
			c-4.4,3.5-8.5,8.7-17,6c-11.8-3.8-9.8-27.5-7.9-41.2c0.7-5.3,1-11.1,1.5-15.9c0.3-3.1,0.4-6.5,0.4-9.6c0-3.3,0.3-6.7-0.2-9.6
			c-0.9-5.3-4.1-12.7-10.2-13.2c-3.4-0.3-8.5,1.7-11.9,2.8c-3.8,1.2-7.2,2.3-10.6,3.8c-3.2,1.5-5.9,3.4-9.4,5.1
			c-2.7,1.3-7.8,3.3-8.1,6.4c-0.2,1.7,1.3,4.1,1.9,5.5c2.1,4.8,4.8,11.3,6.4,15.9c2.4,7.2,4.5,15.6,3.6,26.2
			c-1.5,17.6-16.6,30-31.5,34c-10.2,2.7-24.4,0.7-30.8-3.8c-10.1-7.1-17.6-19.1-20.8-33.2c-2.6-11-5.6-21.3-11.1-29.6
			c-1.9-2.8-3.9-6.1-6.2-8.1c-2.8-2.5-10.1-5.1-9.1-11.3c0.8-5.1,8.3-6.4,14.2-4.9c2.6,0.7,5.1,3.1,7.2,3c2.6-0.2,5.9-6.8,7.9-9.1
			c3.1-3.7,6.6-7,10.4-9.1c4.8-2.7,12-5.8,19.6-5.3c7.4,0.5,11.8,3.9,17,7c1.6,1,4.1,2.4,5.5,2.3c1.6,0,4.6-1.7,6.8-2.8
			c6.4-3,12.6-6.9,18.7-9.8c6.5-3,13.7-5.4,21.3-7.2c9.1-2.2,20.2-1.8,26.4,3.4c5.2,4.4,8.9,11.4,11,20c1.5,5.9,3.3,12.5,3.8,18.3
			c0.3,3.3-0.2,6.6-0.4,9.8c-0.2,2,0.1,4,0,6C1683.7,301,1682.1,306.6,1683.4,312.1L1683.4,312.1z M1596,285.5
			c-3.5,1.4-6.7,3.4-10,5.1c-3.2,1.6-6.4,3.3-10,5.1c-5.1,2.6-17,5.8-17.4,13c-0.1,2.1,1,4.7,1.5,6.4c1.7,5.7,4.9,12.3,8.3,15.5
			c3.1,2.9,10.3,6.7,16.8,6c6.8-0.7,16-5.7,19.8-10.2c2.4-2.8,4.7-8,4.7-12.3c0-3-1.2-6.1-2.1-8.9c-0.8-2.7-1.3-5.8-2.3-8.9
			c-1.1-3.4-4.3-11.4-8.7-10.6C1596.3,285.6,1596.1,285.5,1596,285.5L1596,285.5z"/>
		<path class="st0" d="M691.4,269.8c11.6-2.4,14.5,10.9,15.3,20.8c0.8,9.7-0.7,21.1,0,30.8c0.4,5.3,1.7,11.5,0,15.9
			c-1.3,3.4-5.1,5.8-10,4.7c-7.3-1.7-8.8-11.6-10-20.2c-0.9-7.1-0.7-14.4-1.3-22.7C684.6,287.6,681,272,691.4,269.8L691.4,269.8z"/>
		<path class="st0" d="M2567.6,399.7c3.5-4.5,9.1-8.5,14.9-11.9c4.2-2.5,8.4-4.6,13.2-5.1c9.2-0.9,16.3,0.8,20.8,4.7
			c5.3,4.6,7.3,11.2,6.4,21.9c-0.4,5.1-3.5,10.8-6,14.9c-7.1,11.6-18.9,21.8-27.8,32.3c-1.6,1.9-3,3.6-4.2,5.7
			c-2,3.5-4.4,6.4-4.5,11.5c-0.1,4.4,3.3,13-1.7,14.9c-5.2,2-9.5-1.1-11.1-4.3c-1.9-4-1.3-10.1-1.5-14.7
			c-5.2-4.3-8.8-10.8-13.6-15.9c-3.7-4-7-8.6-11-12.8c-3.3-3.4-6.9-6.2-10.2-9.8c-3.1-3.4-5.8-7.4-7.9-11.9c-1.3-2.8-2.8-7-3.2-10.4
			c-0.5-4.9-0.4-11.7,1.3-14.7c1.8-3.3,7.1-7.5,11.3-8.9c10.4-3.5,21.8,1.1,27.6,5.3C2564.2,393.3,2566.3,395.6,2567.6,399.7
			L2567.6,399.7z M2606.8,410.1c3.1-7,1.7-12.7-6.6-13.6c-0.6,9.1-0.2,19.2-2.3,26.8C2600.9,420.4,2604.6,414.9,2606.8,410.1
			L2606.8,410.1z M2534.7,403.5c-0.2,2.2,1.1,5.5,1.9,7.7c1.6,4.1,4.7,8.4,7.2,10.2c-0.1-7.5,0.1-15.8,0.4-22.1
			C2539.7,397.1,2535,400,2534.7,403.5L2534.7,403.5z M2580.2,407.8c-1.5,1.5-4.5,3.8-4.9,4.9c-0.2,0.8,0.1,1.9,0,2.8
			c-0.3,3.8-0.4,8.7-0.8,12.8c-0.2,2.5-0.2,5.6-0.4,8.5c-0.4,5.3-2.3,10.2-1.9,15.1c2.1-1.2,3.9-3.7,5.7-6c1.5-1.7,4.8-4.9,5.3-7
			c0.6-2.8-0.3-6.7,0-10.2c0.2-2.5,0.9-4.9,1.1-7.2c0.1-1.5-0.2-3.2,0-4.7c0.5-4.9,2.8-9,2.1-13.8c-0.1,0-0.3,0-0.4,0
			C2583.9,404.2,2582.4,405.6,2580.2,407.8L2580.2,407.8z M2556.8,434.1c0.9,1,1.5,2.4,2.8,3c1.5-5.6,0.7-13.5,1.5-19.8
			c-1.6,0.1-2.5-0.7-3.6-1.1C2556.7,422.2,2558.2,429.1,2556.8,434.1L2556.8,434.1z"/>
	</g>
</g>
</svg>
